<?xml version="1.0" standalone="no"?>
<!DOCTYPE svg PUBLIC "-//W3C//DTD SVG 20010904//EN"
 "http://www.w3.org/TR/2001/REC-SVG-20010904/DTD/svg10.dtd">
<svg version="1.0" xmlns="http://www.w3.org/2000/svg"
 width="225.000000pt" height="225.000000pt" viewBox="0 0 225.000000 225.000000"
 preserveAspectRatio="xMidYMid meet">
<metadata>
Created by potrace 1.16, written by Peter Selinger 2001-2019
</metadata>
<g transform="translate(0.000000,225.000000) scale(0.100000,-0.100000)"
fill="#000000" stroke="none">
<path d="M1515 2244 c-66 -10 -144 -38 -220 -77 -67 -35 -106 -67 -237 -195
-155 -152 -188 -195 -188 -247 0 -41 30 -95 64 -116 39 -24 113 -25 146 -3 14
9 90 81 170 160 183 181 216 199 350 199 83 0 103 -4 155 -28 78 -36 146 -104
182 -181 24 -53 28 -73 28 -151 0 -137 -21 -175 -199 -355 -79 -80 -151 -156
-160 -170 -39 -59 -8 -162 58 -194 81 -38 113 -22 284 147 165 163 230 252
268 370 24 71 28 99 28 202 0 106 -3 130 -28 200 -91 261 -310 428 -579 439
-50 3 -105 2 -122 0z"/>
<path d="M1395 1585 c-17 -9 -189 -174 -382 -368 -377 -378 -383 -385 -362
-461 21 -76 87 -116 166 -101 33 6 80 49 386 353 191 191 358 362 369 381 26
42 28 109 4 146 -39 59 -118 81 -181 50z"/>
<path d="M463 1364 c-47 -24 -323 -310 -365 -379 -20 -33 -49 -96 -64 -140
-24 -69 -28 -96 -28 -195 0 -127 14 -190 66 -294 63 -126 157 -220 284 -284
104 -52 167 -66 294 -66 99 0 126 4 195 28 44 15 107 44 140 64 65 39 348 309
371 354 41 78 -10 184 -96 203 -61 13 -98 -11 -256 -166 -186 -183 -222 -204
-359 -204 -77 0 -98 4 -147 27 -79 37 -142 98 -181 177 -29 59 -32 74 -32 156
0 136 21 174 199 355 79 80 150 156 159 170 23 33 22 107 -2 146 -35 57 -115
79 -178 48z"/>
</g>
</svg>
